<?xml version="1.0" standalone="no"?>
<!DOCTYPE svg PUBLIC "-//W3C//DTD SVG 20010904//EN"
 "http://www.w3.org/TR/2001/REC-SVG-20010904/DTD/svg10.dtd">
<svg version="1.0" xmlns="http://www.w3.org/2000/svg"
 width="619.000000pt" height="406.000000pt" viewBox="0 0 619.000000 406.000000"
 preserveAspectRatio="xMidYMid meet">

<g transform="translate(0.000000,406.000000) scale(0.100000,-0.100000)"
fill="#000000" stroke="none">
<path d="M3157 3646 c-12 -13 -57 -39 -99 -59 -43 -20 -78 -38 -78 -41 0 -7
94 31 152 61 5 2 13 -7 20 -21 6 -14 16 -26 22 -26 6 0 5 5 -2 12 -17 17 -15
75 2 81 18 7 26 -1 26 -28 0 -31 28 -54 41 -34 4 8 6 21 3 30 -4 13 6 20 46
29 28 7 62 9 76 6 18 -5 24 -3 18 5 -4 8 -24 9 -61 5 -70 -8 -96 -22 -90 -47
3 -10 2 -21 -3 -24 -10 -6 -22 24 -14 36 6 11 -13 39 -28 39 -5 0 -19 -11 -31
-24z"/>
<path d="M3465 3624 c17 -9 36 -23 43 -32 11 -14 12 -14 12 0 0 9 -14 24 -32
32 -41 21 -62 20 -23 0z"/>
<path d="M3364 3592 c-11 -15 -45 -72 -76 -127 -30 -55 -69 -124 -86 -153 -18
-29 -28 -51 -22 -47 14 9 96 148 153 260 11 22 32 52 45 68 14 15 22 27 16 26
-5 0 -18 -12 -30 -27z"/>
<path d="M3560 3568 l25 -11 -31 -9 c-30 -10 -31 -12 -26 -54 l5 -44 -30 6
c-43 8 -76 -11 -63 -36 5 -10 10 -28 10 -39 0 -18 -6 -21 -40 -21 l-40 0 37
58 c20 31 52 76 71 100 19 23 33 45 30 48 -9 8 -101 -120 -304 -419 -47 -70
-94 -132 -103 -137 -15 -9 -15 -9 1 -10 9 0 30 -12 47 -26 17 -14 37 -23 43
-21 8 4 7 6 -3 6 -31 2 -38 50 -12 77 13 13 14 16 3 12 -8 -2 -19 -14 -25 -26
-10 -22 -25 -30 -25 -14 0 5 40 67 88 138 109 161 134 194 143 194 4 0 10 -19
14 -41 8 -47 -2 -59 -49 -59 -28 0 -28 -1 -22 -45 l7 -45 -35 0 c-35 0 -36 -1
-36 -39 0 -37 -2 -40 -32 -44 -27 -4 -25 -4 7 -3 40 1 40 1 37 39 -3 36 -2 37
33 37 35 0 35 0 35 44 0 43 1 45 33 48 l32 3 -2 57 -2 57 37 3 c36 3 37 4 37
43 -1 47 10 57 49 49 35 -7 46 7 39 51 -5 30 -3 33 27 39 32 6 33 7 15 26 -10
11 -25 20 -34 19 -10 0 -6 -5 9 -11z"/>
<path d="M3603 3523 c-40 -7 -25 -18 20 -15 32 3 51 -2 80 -23 22 -14 37 -20
35 -13 -10 29 -90 59 -135 51z"/>
<path d="M2919 3501 c-19 -11 -42 -28 -50 -37 -13 -17 -13 -17 11 -1 33 23 56
21 74 -5 42 -59 -11 -184 -68 -162 -8 3 -25 29 -36 57 -18 44 -20 47 -15 17 7
-43 35 -84 62 -88 27 -4 83 60 84 96 2 48 -2 67 -21 93 -22 31 -18 39 24 39
55 -1 113 -34 135 -79 26 -50 27 -91 2 -140 -44 -84 -149 -103 -219 -39 -14
14 -23 17 -20 9 17 -54 139 -76 194 -35 53 39 69 71 69 134 0 63 -16 95 -67
133 -38 28 -114 32 -159 8z"/>
<path d="M3490 3423 c0 -5 14 -8 30 -5 18 3 40 -2 56 -13 29 -18 43 -15 19 5
-19 15 -105 26 -105 13z"/>
<path d="M2785 3377 c-16 -5 -39 -18 -51 -28 -27 -25 -49 -24 -88 6 -41 31
-86 34 -86 5 0 -11 11 -27 25 -36 34 -22 23 -34 -31 -34 -49 0 -59 -18 -24
-43 19 -13 15 -16 -50 -41 -38 -15 -73 -32 -76 -38 -12 -19 13 -29 52 -21 l39
7 -40 6 -40 6 35 16 c19 8 56 23 83 32 54 20 59 31 17 40 -16 3 -30 10 -30 16
0 6 8 9 18 6 9 -3 42 1 72 8 30 8 47 14 38 15 -20 1 -78 48 -78 63 0 15 52 0
76 -23 11 -10 30 -19 42 -19 17 0 22 -6 22 -27 0 -16 3 -38 6 -51 6 -19 3 -23
-12 -20 -14 2 -20 -4 -22 -24 -4 -35 -20 -36 -28 -4 -7 27 -4 28 -71 -30 -44
-37 -55 -36 -27 4 18 26 17 26 -27 7 -19 -8 -26 -14 -16 -15 10 0 17 -8 17
-20 0 -29 17 -25 63 16 l40 37 19 -24 c18 -24 19 -24 33 -5 8 11 15 26 15 33
0 7 9 13 21 13 15 0 19 -5 15 -15 -3 -8 0 -15 6 -15 6 0 -1 -12 -16 -26 -17
-18 -26 -37 -26 -59 0 -45 -37 -69 -94 -61 -73 11 -88 -28 -21 -53 19 -7 35
-16 35 -20 0 -4 -22 -36 -50 -70 -52 -65 -57 -76 -40 -86 12 -7 97 44 125 75
23 25 35 17 35 -23 0 -40 15 -66 30 -51 5 5 15 37 21 69 11 67 45 110 61 81
13 -24 48 -20 48 4 0 11 6 20 13 20 8 0 21 8 30 18 18 20 35 78 20 69 -6 -4
-13 -20 -16 -36 -3 -15 -14 -31 -23 -35 -24 -9 -29 0 -10 19 24 24 20 50 -15
84 -37 37 -88 42 -119 11 -11 -11 -20 -15 -20 -9 0 21 21 49 48 63 21 12 23
15 8 16 -16 0 -17 5 -12 38 4 20 21 66 37 101 16 35 28 65 27 66 -2 1 -16 -2
-33 -8z m-4 -44 c-10 -21 -22 -53 -26 -70 -11 -53 -35 -35 -35 26 0 30 15 53
45 69 33 19 36 14 16 -25z m63 -244 c29 -34 30 -38 17 -58 -7 -11 -11 -10 -20
5 -10 15 -11 8 -5 -35 5 -43 3 -53 -7 -49 -8 2 -19 20 -26 39 -8 24 -12 28
-12 13 -1 -29 -29 -53 -40 -35 -5 8 -11 -14 -16 -55 -4 -37 -9 -73 -12 -81
-10 -27 -21 -12 -25 38 -3 27 -11 56 -17 62 -9 9 -11 9 -6 -3 5 -15 -58 -71
-112 -99 -33 -17 -28 -2 18 54 22 27 50 62 61 78 21 29 21 29 1 23 -24 -8 -96
21 -88 35 4 5 27 7 57 3 27 -4 53 -3 57 2 3 5 23 22 43 37 21 15 37 31 37 35
-3 18 3 22 35 22 26 0 41 -7 60 -31z"/>
<path d="M3636 3325 c20 -19 45 -35 56 -35 15 0 17 -3 9 -19 -11 -20 2 -76 22
-96 7 -7 7 -3 2 10 -4 11 -9 40 -10 65 -1 37 -5 46 -22 48 -11 2 -33 16 -48
33 -16 16 -33 29 -38 29 -4 0 8 -16 29 -35z"/>
<path d="M3449 3315 c24 -8 50 -20 57 -26 8 -7 17 -9 20 -6 10 10 -43 38 -82
42 l-39 5 44 -15z"/>
<path d="M3929 3270 l-24 -20 28 11 c15 7 27 16 27 21 0 12 -5 10 -31 -12z"/>
<path d="M3975 3280 c3 -5 8 -10 11 -10 2 0 4 5 4 10 0 6 -5 10 -11 10 -5 0
-7 -4 -4 -10z"/>
<path d="M3802 3241 c-37 -27 -60 -51 -49 -51 3 0 24 16 47 35 48 40 57 42 63
18 4 -14 5 -12 6 5 1 30 -18 28 -67 -7z"/>
<path d="M3572 3234 c-1 -17 -10 -38 -20 -47 -22 -20 -72 -22 -91 -4 -11 10
-13 9 -9 -2 6 -20 54 -32 82 -21 34 12 48 36 43 72 l-4 33 -1 -31z"/>
<path d="M3149 3233 c-23 -28 -71 -104 -67 -108 2 -2 22 25 45 61 42 64 48 79
22 47z"/>
<path d="M3350 3205 c33 -19 50 -18 26 0 -11 8 -27 15 -35 15 -10 -1 -7 -6 9
-15z"/>
<path d="M3342 3167 c10 -24 9 -34 -6 -62 -14 -25 -16 -37 -7 -53 20 -38 12
-62 -41 -113 -37 -36 -54 -46 -60 -37 -11 18 -10 31 7 71 8 20 12 43 9 51 -10
26 -19 18 -21 -16 -1 -18 -5 -49 -8 -68 -6 -29 -2 -39 19 -59 24 -23 26 -23
26 -5 0 11 20 39 45 62 46 43 54 67 36 114 -6 17 -5 29 5 43 18 25 18 56 -1
81 -14 18 -14 17 -3 -9z"/>
<path d="M3805 3155 c-22 -13 -35 -24 -30 -25 6 0 24 9 40 20 37 24 45 25 45
4 0 -14 7 -16 45 -11 25 4 45 4 45 1 0 -3 -14 -17 -31 -31 -28 -24 -29 -28
-15 -38 23 -17 20 -25 -11 -26 -16 -1 -39 -5 -53 -10 -17 -5 -7 -6 30 -3 30 4
57 8 60 11 2 2 -2 13 -9 25 -11 18 -10 23 15 43 37 29 25 47 -27 39 -32 -5
-39 -4 -39 10 0 22 -18 20 -65 -9z"/>
<path d="M3676 3139 c-27 -22 -34 -61 -15 -89 7 -11 8 -6 4 18 -6 28 -2 39 21
63 32 34 28 38 -10 8z"/>
<path d="M4013 3046 c18 -14 17 -15 -3 -21 -12 -4 -20 -9 -17 -11 2 -3 17 0
32 6 23 9 25 13 15 25 -7 8 -20 15 -29 15 -14 -1 -14 -2 2 -14z"/>
<path d="M3760 3040 c8 -5 20 -10 25 -10 6 0 3 5 -5 10 -8 5 -19 10 -25 10 -5
0 -3 -5 5 -10z"/>
<path d="M3017 3033 c-11 -11 -8 -48 5 -61 20 -20 32 -13 14 7 -11 13 -15 27
-11 40 6 21 4 26 -8 14z"/>
<path d="M3677 2983 c-10 -32 -21 -64 -24 -72 -3 -8 -1 -11 5 -7 14 8 44 101
40 121 -2 9 -11 -10 -21 -42z"/>
<path d="M3730 3016 c15 -20 105 -66 128 -66 6 0 12 5 12 11 0 6 -6 9 -14 6
-14 -6 -56 12 -111 48 -29 19 -29 19 -15 1z"/>
<path d="M3950 2995 c14 -17 13 -18 -35 -12 -34 5 -45 4 -35 -3 19 -13 100
-13 100 0 0 5 -10 15 -22 21 -22 12 -22 11 -8 -6z"/>
<path d="M3353 2953 c-7 -2 -13 -9 -13 -14 0 -6 9 -5 21 1 25 14 49 6 49 -14
0 -8 4 -17 10 -21 5 -3 5 7 -1 25 -11 29 -32 37 -66 23z"/>
<path d="M3130 2915 c25 -13 50 -24 55 -24 6 0 -10 11 -35 24 -25 13 -49 24
-55 24 -5 0 10 -11 35 -24z"/>
<path d="M2771 2920 c-1 -26 54 -133 93 -178 20 -24 36 -53 36 -64 0 -19 -4
-20 -70 -14 -62 6 -70 5 -70 -10 0 -10 7 -25 16 -35 14 -15 12 -18 -20 -38
-30 -19 -55 -56 -44 -65 11 -10 108 -15 108 -6 0 5 -22 10 -50 10 -27 0 -50 4
-50 9 0 11 72 67 83 63 13 -4 8 7 -13 28 -11 11 -20 24 -20 29 0 5 30 8 68 8
62 -2 68 -4 85 -30 27 -43 22 -84 -12 -101 -16 -9 -44 -35 -62 -58 l-34 -42
-6 34 -6 35 -2 -32 c-2 -51 18 -49 66 6 66 75 75 71 88 -41 7 -64 -2 -73 -34
-32 -12 15 -28 24 -38 22 -22 -4 -29 -40 -13 -65 10 -16 11 -14 7 9 -7 50 9
54 47 13 44 -46 49 -80 10 -71 -17 5 -23 3 -19 -4 3 -5 15 -10 26 -10 37 0 18
-25 -40 -52 -80 -38 -101 -36 -64 4 9 10 11 18 5 18 -15 0 -35 -38 -27 -50 9
-15 30 -12 75 11 22 12 47 18 55 15 32 -12 36 39 19 203 -17 165 -48 265 -98
321 -31 35 -53 72 -76 127 -10 27 -19 41 -19 33z"/>
<path d="M3305 2920 c-3 -6 0 -10 8 -10 8 0 69 -25 137 -56 68 -31 139 -58
159 -60 29 -4 26 -1 -19 14 -30 11 -91 36 -135 57 -131 61 -143 66 -150 55z"/>
<path d="M3470 2909 l-25 -21 27 16 c43 25 56 21 61 -21 l4 -38 1 43 c2 37 0
42 -20 42 -13 0 -34 -10 -48 -21z"/>
<path d="M3588 2882 c-16 -9 -28 -20 -28 -25 0 -5 14 1 30 13 l30 22 6 -31 c6
-29 24 -54 24 -33 0 17 -22 72 -28 72 -4 0 -19 -8 -34 -18z"/>
<path d="M3659 2863 c-12 -15 -12 -16 3 -11 23 9 29 -14 13 -46 -12 -22 -12
-26 0 -26 16 0 29 51 20 80 -8 24 -18 25 -36 3z"/>
<path d="M3285 2843 c23 -22 145 -67 246 -92 60 -14 109 -28 109 -31 0 -3 -30
-23 -66 -45 -37 -21 -80 -50 -97 -64 -31 -26 -66 -92 -67 -124 0 -10 20 -64
44 -120 24 -56 49 -120 56 -142 7 -22 34 -92 61 -155 27 -63 55 -151 64 -194
14 -73 25 -107 25 -76 0 44 -27 148 -61 230 -159 392 -181 458 -170 493 15 45
70 95 161 147 89 52 120 81 120 112 -1 20 -2 19 -14 -8 -8 -18 -19 -34 -24
-38 -20 -12 -277 58 -325 88 -27 17 -76 32 -62 19z"/>
<path d="M2870 2580 c-13 -9 -13 -10 0 -9 8 0 24 4 35 9 l20 9 -20 0 c-11 0
-27 -4 -35 -9z"/>
<path d="M3048 2344 c-18 -31 -44 -75 -58 -99 -14 -23 -40 -62 -58 -86 -18
-24 -43 -60 -55 -79 -13 -19 -40 -59 -61 -89 -21 -29 -32 -51 -25 -49 8 3 25
23 39 45 56 90 70 110 104 158 82 113 166 255 152 255 -2 0 -19 -25 -38 -56z"/>
<path d="M2776 2341 c-15 -24 30 -61 72 -61 9 0 -3 9 -27 21 -49 22 -46 35 9
42 34 4 34 4 -7 5 -23 1 -44 -2 -47 -7z"/>
<path d="M3202 2177 c-24 -29 -62 -83 -85 -122 -23 -38 -61 -88 -84 -111 -24
-23 -43 -45 -43 -50 0 -19 76 68 127 146 30 47 75 109 100 138 24 28 41 52 36
51 -4 0 -27 -24 -51 -52z"/>
<path d="M2786 2161 c-10 -11 -24 -17 -32 -14 -8 3 -14 0 -14 -5 0 -6 9 -9 20
-7 27 5 78 45 58 45 -8 0 -23 -9 -32 -19z"/>
<path d="M2620 2085 c-21 -25 -21 -71 -1 -89 18 -16 22 -16 50 -1 38 19 41 28
5 14 -25 -9 -26 -8 -13 7 13 16 12 17 -11 11 -24 -6 -24 -5 -6 8 20 15 20 15
0 16 -18 0 -18 1 1 9 11 5 16 9 10 10 -5 0 -1 7 9 15 19 14 19 15 -6 15 -14 0
-31 -7 -38 -15z"/>
<path d="M2746 2073 c4 -10 7 -28 7 -40 -1 -15 4 -20 14 -16 8 3 12 12 7 22
-3 9 -9 24 -11 34 -3 9 -10 17 -15 17 -6 0 -7 -7 -2 -17z"/>
<path d="M2759 1871 c-13 -11 -19 -20 -14 -20 14 0 50 28 43 34 -3 3 -16 -3
-29 -14z"/>
<path d="M2810 1887 c0 -2 14 -13 30 -25 35 -26 40 -22 8 8 -19 18 -38 26 -38
17z"/>
<path d="M2690 1845 c-27 -9 -34 -17 -33 -34 4 -30 41 -64 64 -58 12 3 19 0
19 -9 0 -21 14 -17 40 11 16 17 27 22 34 15 19 -19 34 -10 38 25 2 19 0 35 -4
35 -4 0 -8 -14 -8 -31 0 -27 -2 -30 -15 -19 -13 11 -20 9 -41 -11 l-26 -24 8
29 7 30 -28 -22 c-37 -29 -54 -28 -27 1 28 30 28 42 0 23 -12 -9 -29 -16 -38
-16 -9 1 -4 7 11 15 23 12 45 43 37 50 -2 1 -19 -3 -38 -10z m10 -19 c0 -2 -7
-7 -16 -10 -8 -3 -12 -2 -9 4 6 10 25 14 25 6z"/>
<path d="M2890 1832 c0 -6 6 -12 12 -14 9 -3 8 -12 -5 -31 -10 -15 -14 -27 -9
-27 5 0 15 12 23 28 20 40 23 48 14 40 -5 -4 -14 -3 -22 3 -8 8 -13 8 -13 1z"/>
<path d="M2857 1705 c-14 -25 -22 -45 -17 -45 10 0 24 23 40 64 15 39 5 31
-23 -19z"/>
<path d="M3662 1705 c-9 -232 -82 -373 -231 -445 -58 -28 -63 -40 -59 -124 l3
-59 60 -37 c34 -20 66 -35 73 -32 6 2 14 -8 18 -23 5 -19 11 -24 24 -20 23 7
36 -23 13 -32 -10 -4 -19 -1 -21 6 -3 9 -9 8 -22 -4 -21 -19 -40 -12 -40 14 0
40 -61 56 -68 18 -2 -10 4 -27 13 -37 26 -29 4 -33 -149 -26 -184 9 -187 10
-184 50 1 17 -1 37 -5 43 -4 6 2 49 13 95 11 45 19 97 19 113 -2 26 -2 27 -6
5 -2 -14 -12 -63 -22 -110 -18 -79 -22 -173 -8 -187 9 -9 157 -22 258 -22 47
-1 108 5 135 13 27 8 62 16 78 18 16 2 31 9 34 16 6 19 -49 65 -123 103 -74
38 -85 54 -85 129 l0 49 61 32 c83 44 134 98 174 180 36 75 60 202 53 279 l-5
45 -1 -50z m-208 -731 c19 -7 22 -54 3 -54 -19 0 -37 21 -37 42 0 19 8 22 34
12z"/>
<path d="M3005 1663 c-34 -78 -42 -154 -25 -221 7 -26 14 -55 17 -64 5 -19
-54 -40 -162 -57 -33 -6 -85 -15 -115 -21 -135 -28 -138 -29 -65 -24 39 3 90
12 115 19 25 8 79 19 120 26 41 7 83 16 92 21 12 6 30 -6 73 -48 32 -30 60
-52 64 -49 3 4 -5 15 -19 23 -79 52 -116 136 -114 262 1 53 7 86 20 110 30 57
44 90 36 90 -4 0 -21 -30 -37 -67z"/>
<path d="M2653 1675 c-3 -9 3 -25 13 -36 18 -20 18 -21 -1 -35 -28 -21 -6 -36
46 -31 l44 4 -48 1 c-29 1 -46 6 -42 12 3 6 15 10 26 10 26 0 24 12 -6 40 -14
13 -23 30 -21 37 3 7 3 13 0 13 -2 0 -7 -7 -11 -15z"/>
<path d="M2724 1528 c-17 -18 -36 -46 -42 -61 -14 -31 -103 -79 -110 -58 -2 6
-14 11 -27 11 -13 0 -27 5 -30 10 -3 6 3 10 14 10 25 0 26 11 5 51 -21 42 -10
48 25 15 27 -26 30 -27 39 -9 10 17 11 17 17 1 4 -10 5 -25 2 -33 -4 -8 -2
-17 3 -20 6 -4 10 9 10 29 0 39 -14 54 -35 36 -12 -10 -19 -6 -39 17 -20 22
-27 26 -37 15 -10 -9 -11 -19 -1 -45 15 -43 15 -47 -3 -47 -29 0 -14 -29 21
-40 33 -11 34 -13 19 -30 -9 -10 -29 -20 -46 -24 -65 -13 -42 -65 32 -72 l44
-4 -39 10 c-22 6 -46 16 -54 22 -12 10 -11 14 4 25 10 7 25 13 35 13 9 0 23 7
30 16 7 9 37 27 66 39 37 17 57 33 65 52 6 15 28 45 47 66 19 20 31 37 25 37
-6 0 -24 -15 -40 -32z"/>
<path d="M2580 1441 c0 -5 5 -13 10 -16 6 -3 10 -2 10 4 0 5 -4 13 -10 16 -5
3 -10 2 -10 -4z"/>
<path d="M3154 1221 c17 -19 29 -21 90 -20 39 1 80 6 91 10 12 6 -13 7 -63 3
-69 -5 -87 -3 -110 11 l-27 18 19 -22z"/>
<path d="M3335 1188 c-2 -7 -5 -33 -8 -58 -3 -25 -6 -51 -8 -58 -2 -8 12 -19
34 -27 21 -7 48 -21 59 -32 15 -13 20 -14 16 -3 -2 8 -26 25 -51 38 -39 19
-46 27 -43 45 10 49 16 107 11 107 -3 0 -7 -6 -10 -12z"/>
<path d="M3490 970 c0 -5 4 -10 9 -10 6 0 13 5 16 10 3 6 -1 10 -9 10 -9 0
-16 -4 -16 -10z"/>
<path d="M3110 960 c0 -12 70 -20 165 -18 l90 1 -100 8 c-55 4 -112 10 -127
12 -16 2 -28 0 -28 -3z"/>
</g>
</svg>
